#!OML:ASF H:\Male1\Project 1\Capture day 1\Session 1\Male1.ASF
:FULLY-SPECIFIED
:DEGREES
286
root 46.0153 14.3188 3.72909 551.179 32.5111 563.988
lowerback 21.1599 0.157569 11.6305
upperback 10.396 4.10934 0.740903
thorax 0.321397 3.21363 -6.58808
lowerneck 6.30867 15.6758 19.4342
upperneck -13.9903 21.066 -26.685
head 0.153713 11.4036 -10.8789
rclavicle -6.20208e-014 1.43125e-014
rhumerus -50.2762 15.8928 -98.0735
rradius 100.236
rwrist -22.1817
rhand -36.8867 14.0408
rfingers 7.12502
rthumb -9.96531 -15.7034
lclavicle -6.20208e-014 1.43125e-014
lhumerus -50.3962 -7.94183 85.3174
lradius 97.7031
lwrist 25.9051
lhand -31.5246 12.6081
lfingers 7.12502
lthumb -4.78971 42.5339
rfemur -23.0747 9.25396 35.7891
rtibia 38.4951
rfoot -14.4601 -13.4492
rtoes -48.4013
lfemur -31.3122 -25.9552 5.19101
ltibia 65.0595
lfoot -27.8438 7.72969
ltoes -2.5536
287
root 46.1346 14.383 3.75039 549.498 30.7417 560.803
lowerback 21.094 0.3978 9.99048
upperback 10.2826 4.07128 0.113808
thorax 0.12695 3.12298 -6.34733
lowerneck 6.35268 15.6647 19.5082
upperneck -13.9923 21.0693 -26.8998
head 0.186926 11.4224 -10.9589
rclavicle -1.1291e-013 -3.33958e-014
rhumerus -50.3854 15.7855 -98.0977
rradius 100.355
rwrist -22.3106
rhand -37.0303 14.0567
rfingers 7.12502
rthumb -10.1038 -15.6807
lclavicle -1.1291e-013 -3.33958e-014
lhumerus -50.4148 -7.92485 85.3714
lradius 97.6798
lwrist 25.8686
lhand -31.5569 13.108
lfingers 7.12502
lthumb -4.82089 43.0332
rfemur -23.4972 8.49679 33.6284
rtibia 39.331
rfoot -15.1812 -14.5529
rtoes -47.2021
lfemur -31.5967 -26.5733 2.98176
ltibia 63.7739
lfoot -26.9796 7.79061
ltoes -1.2977
288
root 46.2454 14.4386 3.7718 548.006 28.8009 558.017
lowerback 21.267 0.560222 8.61962
upperback 10.1597 4.03396 -0.448595
thorax -0.172555 3.04916 -6.19804
lowerneck 6.36052 15.6761 19.5508
upperneck -13.9262 21.1057 -27.1204
head 0.249939 11.455 -11.0233
rclavicle -6.44062e-014 3.18055e-015
rhumerus -50.5223 15.6796 -98.1567
rradius 100.429
rwrist -22.4894
rhand -37.2057 14.0391
rfingers 7.12502
rthumb -10.2731 -15.69
lclavicle -6.44062e-014 3.18055e-015
lhumerus -50.3088 -7.88309 85.4771
lradius 97.7241
lwrist 25.8823
lhand -31.7429 13.8012
lfingers 7.12502
lthumb -5.00046 43.7222
rfemur -23.7817 7.50859 31.7309
rtibia 40.1421
rfoot -15.8973 -15.5737
rtoes -46.0242
lfemur -31.8586 -26.968 0.997351
ltibia 62.566
lfoot -26.0204 7.60405
ltoes -0.30316
289
root 46.3533 14.4888 3.79012 546.756 26.7286 555.588
lowerback 21.4956 0.697473 7.47157
upperback 10.0321 4.01908 -0.952953
thorax -0.481947 3.00185 -6.11599
lowerneck 6.35205 15.7049 19.5429
upperneck -13.8476 21.1634 -27.3177
head 0.314784 11.4976 -11.068
rclavicle 1.82882e-014 -1.27222e-014
rhumerus -50.6609 15.545 -98.2609
rradius 100.447
rwrist -22.6919
rhand -37.3967 14.0044
rfingers 7.12502
rthumb -10.4573 -15.7155
lclavicle 1.82882e-014 -1.27222e-014
lhumerus -50.1053 -7.8885 85.6204
lradius 97.7873
lwrist 25.9403
lhand -32.1005 14.5241
lfingers 7.12502
lthumb -5.34578 44.4366
rfemur -23.9317 6.3157 30.0711
rtibia 40.801
rfoot -16.5388 -16.5292
rtoes -44.9579
lfemur -32.1578 -27.0584 -0.800106
ltibia 61.4987
lfoot -25.0587 7.19084
ltoes 0.521345
290
root 46.4626 14.5362 3.80322 545.789 24.5767 553.535
lowerback 21.6735 0.846792 6.5265
upperback 9.89881 4.05597 -1.38403
thorax -0.750402 2.99229 -6.0744
lowerneck 6.35119 15.7551 19.4804
upperneck -13.797 21.2447 -27.4729
head 0.363335 11.5532 -11.091
rclavicle 9.54166e-015 -3.18055e-014
rhumerus -50.7887 15.3775 -98.3986
rradius 100.407
rwrist -22.8853
rhand -37.578 13.9699
rfingers 7.12502
rthumb -10.6322 -15.7411
lclavicle 9.54166e-015 -3.18055e-014
lhumerus -49.8331 -7.85654 85.7751
lradius 97.7946
lwrist 25.9137
lhand -32.5764 15.2264
lfingers 7.12502
lthumb -5.80527 45.1269
rfemur -23.9801 5.02511 28.6832
rtibia 41.297
rfoot -17.1349 -17.4541
rtoes -43.9523
lfemur -32.4892 -26.7605 -2.40423
ltibia 60.5813
lfoot -24.1721 6.60414
ltoes 1.1586
291
root 46.5773 14.5814 3.81188 545.179 22.3732 552.014
lowerback 21.7489 1.01844 5.87762
upperback 9.74907 4.1702 -1.69406
thorax -0.959699 3.03048 -6.07837
lowerneck 6.36273 15.8185 19.374
upperneck -13.7906 21.3376 -27.5849
head 0.388499 11.6163 -11.0966
rclavicle 9.14409e-014 -1.19271e-014
rhumerus -50.8833 15.1748 -98.5584
rradius 100.313
rwrist -23.0325
rhand -37.7145 13.933
rfingers 7.12502
rthumb -10.7639 -15.7712
lclavicle 9.14409e-014 -1.19271e-014
lhumerus -49.5215 -7.80396 85.9131
lradius 97.6891
lwrist 25.7582
lhand -33.0423 15.7405
lfingers 7.12502
lthumb -6.25508 45.6281
rfemur -23.9615 3.80656 27.7566
rtibia 41.6221
rfoot -17.7124 -18.4507
rtoes -42.9252
lfemur -32.8783 -25.972 -3.64381
ltibia 59.8317
lfoot -23.3921 5.95004
ltoes 0.983491
292
root 46.7 14.6274 3.8133 544.741 20.0335 550.56
lowerback 21.6266 1.2204 5.15189
upperback 9.60079 4.29275 -1.98016
thorax -1.07542 3.07245 -5.99894
lowerneck 6.38395 15.8839 19.2508
upperneck -13.8156 21.4307 -27.6711
head 0.397365 11.6805 -11.095
rclavicle 6.91771e-014 -5.56597e-015
rhumerus -50.9319 14.9172 -98.7234
rradius 100.174
rwrist -23.1038
rhand -37.7736 13.8882
rfingers 7.12502
rthumb -10.8209 -15.8131
lclavicle 6.91771e-014 -5.56597e-015
lhumerus -49.1748 -7.75681 86.0289
lradius 97.4219
lwrist 25.4916
lhand -33.3666 16.1657
lfingers 7.12502
lthumb -6.56816 46.0438
rfemur -23.9345 2.54942 26.851
rtibia 41.849
rfoot -18.3407 -19.508
rtoes -41.8726
lfemur -33.3068 -24.8226 -5.01828
ltibia 59.2022
lfoot -22.7518 5.42288
ltoes -0.270264
293
root 46.8287 14.6706 3.80768 544.459 17.4961 549.441
lowerback 21.4011 1.38278 4.64018
upperback 9.47119 4.40764 -2.17155
thorax -1.11205 3.11993 -5.92759
lowerneck 6.41019 15.9324 19.1523
upperneck -13.8345 21.5074 -27.7815
head 0.409834 11.7373 -11.1072
rclavicle 2.14687e-014 0
rhumerus -50.9415 14.5972 -98.8694
rradius 100.012
rwrist -23.1002
rhand -37.7501 13.8401
rfingers 7.12502
rthumb -10.7982 -15.8623
lclavicle 2.14687e-014 0
lhumerus -48.8012 -7.83847 86.1452
lradius 96.9042
lwrist 25.2357
lhand -33.6323 16.2427
lfingers 7.12502
lthumb -6.82466 46.1127
rfemur -23.7953 1.23972 26.2541
rtibia 41.988
rfoot -19.0394 -20.6317
rtoes -40.7142
lfemur -33.6974 -23.2943 -6.31043
ltibia 58.7492
lfoot -22.2991 5.09369
ltoes -2.94765
294
root 46.9547 14.708 3.79431 544.249 14.753 548.461
lowerback 21.1027 1.47683 4.26256
upperback 9.35669 4.46163 -2.32833
thorax -1.09626 3.14371 -5.87566
lowerneck 6.43655 15.9613 19.1015
upperneck -13.8176 21.5708 -27.9467
head 0.443111 11.7876 -11.143
rclavicle -3.49861e-014 1.35174e-014
rhumerus -50.9363 14.249 -98.9958
rradius 99.8497
rwrist -23.045
rhand -37.6738 13.8087
rfingers 7.12502
rthumb -10.7246 -15.8976
lclavicle -3.49861e-014 1.35174e-014
lhumerus -48.3777 -7.92843 86.2661
lradius 96.1934
lwrist 24.9078
lhand -33.6535 16.1786
lfingers 7.12502
lthumb -6.84509 46.048
rfemur -23.5881 -0.229986 25.7515
rtibia 42.0864
rfoot -19.8061 -21.712
rtoes -39.367
lfemur -34.0486 -21.4372 -7.75259
ltibia 58.5021
lfoot -22.0161 5.09629
ltoes -6.78801
295
root 47.0774 14.7372 3.77329 544.1 11.7983 547.776
lowerback 20.7727 1.47684 4.13675
upperback 9.25772 4.44466 -2.39593
thorax -1.0451 3.13955 -5.85309
lowerneck 6.45143 15.977 19.0877
upperneck -13.751 21.6305 -28.1621
head 0.503394 11.835 -11.1958
rclavicle -1.51076e-014 5.56597e-015
rhumerus -50.9408 13.9215 -99.1077
rradius 99.7034
rwrist -22.9739
rhand -37.5883 13.8205
rfingers 7.12502
rthumb -10.6421 -15.89
lclavicle -1.51076e-014 5.56597e-015
lhumerus -47.9364 -8.01147 86.4378
lradius 95.3253
lwrist 24.6876
lhand -33.6864 15.8754
lfingers 7.12502
lthumb -6.87688 45.7437
rfemur -23.2626 -1.82768 25.5197
rtibia 42.1047
rfoot -20.5246 -22.8151
rtoes -38.0117
lfemur -34.3742 -19.249 -9.14923
ltibia 58.5434
lfoot -21.8934 5.38562
ltoes -10.9385
296
root 47.1945 14.7559 3.74563 543.968 8.69513 547.572
lowerback 20.4811 1.38188 4.42988
upperback 9.17126 4.38754 -2.32205
thorax -0.985191 3.12536 -5.91134
lowerneck 6.44956 16.3734 19.1416
upperneck -13.4672 21.7779 -28.4444
head 0.680371 11.4195 -11.2367
rclavicle -3.93594e-014 -1.03368e-014
rhumerus -50.9616 13.6409 -99.2038
rradius 99.5626
rwrist -22.8923
rhand -37.5306 13.9125
rfingers 7.12502
rthumb -10.5865 -15.8009
lclavicle -3.93594e-014 -1.03368e-014
lhumerus -47.4921 -8.06338 86.6519
lradius 94.3419
lwrist 24.4917
lhand -33.6972 15.3316
lfingers 7.12502
lthumb -6.88726 45.1995
rfemur -22.7967 -3.46096 25.7732
rtibia 42.0602
rfoot -21.4688 -23.8942
rtoes -36.0905
lfemur -34.6665 -16.7514 -10.231
ltibia 58.8959
lfoot -21.9084 5.82587
ltoes -14.1571
297
root 47.305 14.7662 3.71 543.739 5.54162 547.823
lowerback 20.2735 1.22589 5.10087
upperback 9.10181 4.33138 -2.11573
thorax -0.932106 3.12258 -6.04843
lowerneck 6.39222 16.3676 19.1725
upperneck -13.2648 21.7822 -28.676
head 0.787315 11.4337 -11.2948
rclavicle 2.5842e-014 1.11319e-014
rhumerus -51.0002 13.4117 -99.2896
rradius 99.392
rwrist -22.775
rhand -37.5018 14.1221
rfingers 7.12502
rthumb -10.5587 -15.5927
lclavicle 2.5842e-014 1.11319e-014
lhumerus -47.0693 -8.15327 86.9216
lradius 93.269
lwrist 24.3824
lhand -33.7455 14.5882
lfingers 7.12502
lthumb -6.93394 44.4546
rfemur -22.1355 -5.03982 26.4846
rtibia 41.9407
rfoot -22.5986 -24.9724
rtoes -33.7493
lfemur -34.8518 -14.0514 -10.9542
ltibia 59.5257
lfoot -22.0797 6.31091
ltoes -15.4376
298
root 47.4085 14.773 3.66559 543.399 2.37337 548.056
lowerback 20.0902 1.07462 5.68892
upperback 9.03447 4.26991 -1.90559
thorax -0.896549 3.11605 -6.13529
lowerneck 6.28334 16.3395 19.2603
upperneck -12.9946 21.7668 -28.8909
head 0.92143 11.4293 -11.3504
rclavicle 4.85035e-014 5.56597e-015
rhumerus -51.0441 13.2268 -99.365
rradius 99.1509
rwrist -22.6242
rhand -37.4561 14.4517
rfingers 7.12502
rthumb -10.5146 -15.2653
lclavicle 4.85035e-014 5.56597e-015
lhumerus -46.6906 -8.17804 87.2264
lradius 92.1857
lwrist 24.2153
lhand -33.8056 13.8255
lfingers 7.12502
lthumb -6.99193 43.6901
rfemur -21.3997 -6.5985 27.135
rtibia 41.8128
rfoot -23.8319 -26.0286
rtoes -31.2946
lfemur -34.9513 -11.2921 -11.7516
ltibia 60.2914
lfoot -22.3912 6.75377
ltoes -14.4479
299
root 47.5041 14.7789 3.61268 543.003 -0.757905 548.278
lowerback 19.9269 3.1802 7.01898
upperback 9.04495 3.63471 -1.42748
thorax -0.669465 1.34131 -6.20081
lowerneck 6.10916 16.2694 19.4034
upperneck -12.6712 21.6999 -29.0617
head 1.06885 11.3883 -11.4004
rclavicle 1.03368e-014 4.77083e-015
rhumerus -51.0458 13.071 -99.4332
rradius 98.7888
rwrist -22.4408
rhand -37.3531 14.8777
rfingers 7.12502
rthumb -10.4153 -14.8443
lclavicle 1.03368e-014 4.77083e-015
lhumerus -46.3462 -8.16634 87.5135
lradius 91.1537
lwrist 24.0143
lhand -33.8419 13.0571
lfingers 7.12502
lthumb -7.02697 42.9204
rfemur -20.653 -8.08347 27.7268
rtibia 41.7225
rfoot -25.1063 -27.0894
rtoes -28.9178
lfemur -34.9917 -8.47628 -12.5592
ltibia 61.0926
lfoot -22.7998 7.12193
ltoes -11.977
